# xmcd
# 
# Track frame offsets:
#     150
#     21065
#     40937
#     57455
#     90387
#     118125
#     145230
#     162412
# 
# Disc length: 2619
# 
# Revision: 0
# Processed by: cddbd v1.5.2PL0 Copyright (c) Steve Scherf et al.
# Submitted via: BonkEnc v1.0
# 
DISCID=680a3908
DTITLE=Deep Purple - Shades Of Deep Purple
DYEAR=1968
DGENRE=Hard Rock
TTITLE0=And The Address
TTITLE1=Hush
TTITLE2=One More Rainy Day
TTITLE3=a) Prelude - Happiness b) I'm So Glad
TTITLE4=Mandrake Root
TTITLE5=Help
TTITLE6=Love Help Me
TTITLE7=Hey Joe
EXTD=YEAR: 1968
EXTT0=
EXTT1=
EXTT2=
EXTT3=
EXTT4=
EXTT5=
EXTT6=
EXTT7=
PLAYORDER=
